<svg id="Capa_1" data-name="Capa 1" xmlns="http://www.w3.org/2000/svg" viewBox="0 0 20 20"><defs><style>.cls-1{fill:none;stroke:#000;stroke-miterlimit:10;stroke-width:0.5px;}</style></defs><title>ICONO TELEFONO</title><path id="Capa_5" data-name="Capa 5" class="cls-1" d="M1.22,5.54A4.82,4.82,0,0,1,4.38.85a1.42,1.42,0,0,1,2,.79A26.9,26.9,0,0,1,7.38,5a1.09,1.09,0,0,1-.65,1.26c-.52.27-1.07.48-1.61.71a.55.55,0,0,0-.37.8A19.53,19.53,0,0,0,9.5,15.11a.59.59,0,0,0,1,0c.37-.34.68-.73,1-1.07a1.2,1.2,0,0,1,1.6-.21,9.33,9.33,0,0,1,2.66,2.22,1.49,1.49,0,0,1-.06,2.2,4.6,4.6,0,0,1-5.28,1,13.54,13.54,0,0,1-5.07-3.89A17.12,17.12,0,0,1,1.38,7C1.3,6.5,1.27,6,1.22,5.54Zm17.93,5.33a4.34,4.34,0,0,1,0,.51.86.86,0,0,1-.9.81.81.81,0,0,1-.76-.89,9.08,9.08,0,0,0-.89-4.17A8.87,8.87,0,0,0,11.16,2.4a.9.9,0,0,1-.72-.7A.82.82,0,0,1,11.55.77a10.2,10.2,0,0,1,4,2.2,10.6,10.6,0,0,1,3.62,7.9Zm-2.95-.08c0,.16,0,.31,0,.47a.83.83,0,0,1-.83.82.85.85,0,0,1-.84-.82,10.15,10.15,0,0,0-.17-1.66,6,6,0,0,0-4-4.38,1.25,1.25,0,0,1-.7-.59,1.11,1.11,0,0,1,.17-.83.76.76,0,0,1,.93-.2,7.59,7.59,0,0,1,3.91,2.76,7.53,7.53,0,0,1,1.52,4.43Zm-2.91.2a1.75,1.75,0,0,1,0,.32.78.78,0,0,1-.88.64.76.76,0,0,1-.74-.79A3.19,3.19,0,0,0,9.35,8,.8.8,0,0,1,8.82,6.9a.83.83,0,0,1,1.09-.5A4.83,4.83,0,0,1,13.29,11Z"/></svg>