<svg id="Capa_1" data-name="Capa 1" xmlns="http://www.w3.org/2000/svg" viewBox="0 0 20 20"><defs><style>.cls-1{fill:none;stroke:#13448d;stroke-linecap:round;stroke-linejoin:round;stroke-width:0.5px;}.cls-2{fill:#13448d;}</style></defs><title>ICONO AGENCIA</title><path class="cls-1" d="M19.05,9.22v8.83H11.9V12.33H8.1v5.72H1V9.22"/><path class="cls-2" d="M19.45,7.64a2.4,2.4,0,0,1-.74,1.26,2.35,2.35,0,0,1-3.53-.46.5.5,0,0,0-.42-.22.51.51,0,0,0-.42.22,2.34,2.34,0,0,1-3.92,0,.51.51,0,0,0-.84,0,2.34,2.34,0,0,1-3.92,0,.51.51,0,0,0-.42-.22.5.5,0,0,0-.42.22,2.35,2.35,0,0,1-3.54.45A2.38,2.38,0,0,1,.55,7.64h18.9m.55-.5H0A2.86,2.86,0,0,0,5.24,8.72a2.85,2.85,0,0,0,4.76,0,2.85,2.85,0,0,0,4.76,0A2.86,2.86,0,0,0,20,7.14Z"/><path class="cls-2" d="M16.29,1.45l2.78,4.24H.93L3.71,1.45H16.29m.27-.5H3.44L0,6.19H20L16.56,1Z"/></svg>