<svg id="Capa_1" data-name="Capa 1" xmlns="http://www.w3.org/2000/svg" viewBox="0 0 20 20"><defs><style>.cls-1{fill:none;stroke:#2b3889;stroke-linejoin:round;stroke-width:0.5px;}</style></defs><title>ICONO CONTRAENTREGA</title><path class="cls-1" d="M.28,10.69l2.52.85L1.65,14.75.28,14.37V10.69Zm1.82.62L1,14.56m4-2L6.39,7.14l6.3,1.56,1.08.57L12.46,14.7M8.4,7.63l-.57,2.45,2.1.5.57-2.42M2.62,12l2.25.52a.82.82,0,0,0,.24,0,3.07,3.07,0,0,1,1.31-.06,3.56,3.56,0,0,1,1.68.79m-.86-.14s3.08.46,3.13,1.07c0,0,.17.78-.59.69s-3.09-.31-3.45-.71m3.25,0-.06.36a.16.16,0,0,0,.13.19l.3.06a.31.31,0,0,0,.37-.23v-.14a.32.32,0,0,0-.26-.32l-.32,0a.13.13,0,0,0-.16.12Zm.74.55a4,4,0,0,0,1.17.07c.78-.05,1.41-.14,1.67.37a.54.54,0,0,1,0,.25.09.09,0,0,1-.06.06l-2.27.45a4.89,4.89,0,0,1-2.16,0,23.63,23.63,0,0,1-3.49-.82l-3.36-.91M13.19,15.3s-.68,0-.73.26m-1.34.26a7.86,7.86,0,0,0,1.85,0c.93-.14,1-.3,1-.3s.05-.46-.9-.46m.86.5a.41.41,0,0,1-.11-.07.15.15,0,0,0-.17,0c-.13.07-.32.19-.35.28m-.66-7-1.52,6.05m8.44-2.64a3.89,3.89,0,0,1-2.83-1.89L18.06,8a2.3,2.3,0,0,0,.71,0,2.84,2.84,0,0,1,.95.15v4ZM18.06,8l-.5-.25L16.29,9.9l.48.32m.79-2.48a7.57,7.57,0,0,1-2.89-2.65S14,3.64,13.19,3.32a2.85,2.85,0,0,0-1.79.06m1.32,1.35a3.53,3.53,0,0,1-2.38-.65s-.82-.45-1.12,0,.22.85.38,1,1.4.69,1.4.69a6.27,6.27,0,0,1,1.57,1c1,.84,1,.89,1.6,1m-2-4.06a1.48,1.48,0,0,0,.05,1M11,5.76a3.17,3.17,0,0,1-2.45.3,2.74,2.74,0,0,0-.7,0A4.51,4.51,0,0,0,6,6.53l-.8-3.09a3.85,3.85,0,0,1,2.1-.36,4.43,4.43,0,0,0,3.89-.71l.47,2.28M9.83,3.07l.23.88m.39,1.54.09.49M7.15,3.07,7.78,6m2.15.08s-.66.59-.33.85,1.1-.5,1.1-.5a1.82,1.82,0,0,1,.73-.38m-1.36.85a.21.21,0,0,0,.12.35c.21.07.52-.12.68-.25a1.54,1.54,0,0,1,.58-.27,1.08,1.08,0,0,1,.4,0m0-.19s-.06.27.53.48c0,0,.26.07.65.8a2.94,2.94,0,0,0,1.71,1.23,1.4,1.4,0,0,1,.36.13l.4.19a1.77,1.77,0,0,1,.33.19l.51.34M10,7a.36.36,0,0,1,.18.07s.28-.18.27-.43m-.57-.51-.29.59H9.51m.58-2.3-.15.26a.23.23,0,0,1-.32.09l0,0L9.27,4.5a.26.26,0,0,1-.07-.33h0A.37.37,0,0,1,9.7,4h0l.3.17a.19.19,0,0,1,.07.26Z"/></svg>