<svg id="Capa_1" data-name="Capa 1" xmlns="http://www.w3.org/2000/svg" viewBox="0 0 20 20"><title>ICONO UBICACIÓN</title><g id="Capa_5" data-name="Capa 5"><path d="M10.35,1.63h0a6.8,6.8,0,0,1,1.09.1,5.59,5.59,0,0,1,4.49,6,4.32,4.32,0,0,1-.42,1.57c-1.41,2.56-2.83,5.06-4.33,7.7l-.85,1.51-1-1.67-1.16-2C7.27,13.24,6.31,11.61,5.41,10a5.33,5.33,0,0,1-.6-4.11,5.63,5.63,0,0,1,5.54-4.24m0-.71A6.32,6.32,0,0,0,4.12,5.7a6.09,6.09,0,0,0,.66,4.63c1.29,2.3,2.64,4.57,4,6.85.5.87,1,1.74,1.6,2.74,2-3.5,3.91-6.88,5.79-10.3a4.86,4.86,0,0,0,.51-1.85A6.31,6.31,0,0,0,11.56,1a8.34,8.34,0,0,0-1.21-.1Z"/></g><path d="M10.29,4.66A2.53,2.53,0,1,1,7.77,7.18a2.52,2.52,0,0,1,2.52-2.52m0-.71a3.24,3.24,0,1,0,3.24,3.23A3.23,3.23,0,0,0,10.29,4Z"/></svg>