<svg id="Capa_1" data-name="Capa 1" xmlns="http://www.w3.org/2000/svg" viewBox="0 0 20 20"><defs><style>.cls-1{fill:none;stroke:#1c3861;stroke-miterlimit:10;stroke-width:0.5px;}.cls-2{fill:#1c3861;}</style></defs><title>ICONO BI</title><path class="cls-1" d="M16.63,19.62H3.28A2.83,2.83,0,0,1,.46,16.79V3.44A2.82,2.82,0,0,1,3.28.62H16.63a2.83,2.83,0,0,1,2.83,2.82V16.79A2.85,2.85,0,0,1,16.63,19.62Z"/><path class="cls-2" d="M4.7,16.43v-1.7H3.59c-.69,0-1-.29-1-1V7c0-.08,0-.16,0-.23s.05,0,.07,0c1.74,0,3.49-.08,5.23.06A2.6,2.6,0,0,1,10.13,8a2.37,2.37,0,0,1-.72,3.16s0,.07.07.08a2.34,2.34,0,0,1,1.58,3,2.66,2.66,0,0,1-2.45,2.16A36.16,36.16,0,0,1,4.7,16.43Zm0-1.73c.94,0,1.84,0,2.75,0A2.38,2.38,0,0,0,8,14.59a1.12,1.12,0,0,0,.87-1.2,1.06,1.06,0,0,0-1-1.08,24.39,24.39,0,0,0-3.2-.09V14.7Zm0-4.2h.92c.52,0,1,0,1.57-.05a1,1,0,0,0,.95-.91.92.92,0,0,0-.82-1,15.27,15.27,0,0,0-2.62-.08Z"/><path class="cls-2" d="M14,16.41H11.9c-.1-.12-.06-.26-.06-.39V10.68c0-.7.31-1,1-1H14Z"/><path class="cls-2" d="M14,6.7c0-.73,0-1.45,0-2.16a.75.75,0,0,1,.74-.73c.85,0,1.7,0,2.58,0,0,.77,0,1.51,0,2.25a.66.66,0,0,1-.64.64C15.78,6.73,14.89,6.7,14,6.7Z"/><path class="cls-2" d="M11.88,8.42c0-.46,0-.88,0-1.29a.35.35,0,0,1,.38-.37c.54,0,1.09,0,1.68,0a6.67,6.67,0,0,1,0,1.34c0,.24-.23.33-.46.33Z"/></svg>