<svg id="Capa_1" data-name="Capa 1" xmlns="http://www.w3.org/2000/svg" viewBox="0 0 20 20"><title>ICONO CORREO</title><g id="Capa_5" data-name="Capa 5"><path d="M2.22,3.75H17.93l-1.2.7L15.85,5,10,8.36h0c-2.6-1.53-5.23-3.1-7.77-4.62M1.07,6.05l.3.18L4,7.78l1.07.64c1.34.8,2.73,1.62,4.09,2.46a1.57,1.57,0,0,0,.84.25,1.69,1.69,0,0,0,.87-.27l8.08-4.73v8.63c0,1-.28,1.27-1.26,1.27H2.11c-1,0-1-.72-1-1,0-2.4,0-4.8,0-7.21V6.05m1.1-3a1.55,1.55,0,0,0-1.49.63.41.41,0,0,0,.08.12q4.47,2.69,9,5.33a.35.35,0,0,0,.21.05A1,1,0,0,0,10.39,9c2.25-1.29,4.48-2.59,6.72-3.9l2.27-1.34C18.9,3.13,18.71,3,18,3H2.17ZM.39,4.78a1.38,1.38,0,0,0-.07.31c0,3.33,0,6.66,0,10a1.6,1.6,0,0,0,1.78,1.7H17.68c1.39,0,2-.62,2-2V5.35c0-.14,0-.28,0-.48L19,5.21q-4.29,2.49-8.56,5a1,1,0,0,1-.48.16.86.86,0,0,1-.45-.14C7.83,9.19,6.1,8.17,4.37,7.14l-4-2.36Z"/></g></svg>