<svg id="Capa_1" data-name="Capa 1" xmlns="http://www.w3.org/2000/svg" viewBox="0 0 20 20"><defs><style>.cls-1{fill:#00502f;}.cls-2{fill:none;stroke:#00502f;stroke-miterlimit:10;stroke-width:0.24px;}</style></defs><title>ICONO BANRURAL </title><path class="cls-1" d="M16.33,1A2.68,2.68,0,0,1,19,3.67V16.33A2.68,2.68,0,0,1,16.33,19H3.67A2.68,2.68,0,0,1,1,16.33V3.67A2.68,2.68,0,0,1,3.67,1H16.33m0-.5H3.67A3.18,3.18,0,0,0,.5,3.67V16.33A3.18,3.18,0,0,0,3.67,19.5H16.33a3.18,3.18,0,0,0,3.17-3.17V3.67A3.18,3.18,0,0,0,16.33.5Z"/><path class="cls-2" d="M11.31,8a7.68,7.68,0,0,0,1.29.47,4.21,4.21,0,0,0,.6.11,1.71,1.71,0,0,0,.45,0,1.09,1.09,0,0,0,.18,0h.51a3.16,3.16,0,0,0,.32,0l.39-.05a5.41,5.41,0,0,0,.58-.12l.27-.07,0,0a.09.09,0,0,1,0-.05,1.09,1.09,0,0,0,0-.18,2,2,0,0,0-.06-.34,2.22,2.22,0,0,0-.18-.49,2.08,2.08,0,0,0-.43-.59l-.16-.15a2.55,2.55,0,0,0-.52-.33A2,2,0,0,0,14.19,6,2.34,2.34,0,0,0,13.74,6a2.45,2.45,0,0,0-.89.11,2.32,2.32,0,0,0-.36.16l-.31.19L12,6.59a2.09,2.09,0,0,0-.2.22,2.29,2.29,0,0,0-.5,1l0,.15.05,0Z"/><path class="cls-1" d="M11,7.69l-.45-.23a4.59,4.59,0,0,0-1.2-.35,2.17,2.17,0,0,0-.36,0,2.31,2.31,0,0,0-.46,0c-.24.06-.47.13-.7.21a11.68,11.68,0,0,0-1.3.58c-.29.15-.57.31-.85.47L4.47,9l-.65.34-.33.16a6.55,6.55,0,0,1-.93.35,5.34,5.34,0,0,1-1.12.18h0l.05,0a1.48,1.48,0,0,0,.35.05,4.15,4.15,0,0,0,.79-.07,7.9,7.9,0,0,0,1.08-.32c.36-.15.71-.31,1.05-.49s.9-.48,1.34-.74A8.18,8.18,0,0,1,7,8.06a5.49,5.49,0,0,1,1-.37,3.44,3.44,0,0,1,.63-.1,2.9,2.9,0,0,1,.51,0,3,3,0,0,1,.52.08,6.61,6.61,0,0,1,.76.22l1.13.44a6,6,0,0,0,.59.22,9,9,0,0,0,.93.2,4.21,4.21,0,0,0,.62.05,5.3,5.3,0,0,0,1.26-.06,6.11,6.11,0,0,0,.85-.18,6.3,6.3,0,0,0,1.65-.75A4.94,4.94,0,0,0,18,7.39a.86.86,0,0,1,.14-.13l.16-.15,0-.06h0l-.15.1a8.46,8.46,0,0,1-1.09.62,7.44,7.44,0,0,1-1.11.42h0l-.27.07c-.19.05-.39.09-.58.12l-.39.06-.32,0h-.69l-.45,0-.6-.12a6.64,6.64,0,0,1-1.29-.47s0,0-.05,0L11,7.69Z"/><path class="cls-1" d="M7,11.23l0,0c.17.39.35.77.53,1.16l.24.5a0,0,0,0,0,.05,0h.41s0,0,0,0V10.42h0s0,0,0,0h-.4s0,0,0,0v1.39a0,0,0,0,1,0,0,.05.05,0,0,1,0,0l-.54-1.11c0-.09-.09-.18-.13-.28l0,0H6.6c-.07,0-.06,0-.06.06V13H7s0,0,0,0V11.23Z"/><path class="cls-1" d="M4.4,12A.53.53,0,0,0,4,11.56H4l0,0a.53.53,0,0,0,.22-.29,1.7,1.7,0,0,0,0-.22.78.78,0,0,0-.07-.33.41.41,0,0,0-.13-.17.8.8,0,0,0-.23-.1l-.14,0H2.84c-.09,0-.08,0-.08.07v2.48s0,0,0,0h1a.69.69,0,0,0,.56-.44A1,1,0,0,0,4.4,12ZM3.26,10.88s0,0,0,0h.26l.1,0a.19.19,0,0,1,.12.11.45.45,0,0,1,0,.28.22.22,0,0,1-.13.12H3.3s0,0,0,0Zm.62,1.45a.39.39,0,0,1-.08.1.45.45,0,0,1-.18.07H3.29s0,0,0,0v-.59a0,0,0,0,1,0,0h.36a.31.31,0,0,1,.13,0,.38.38,0,0,1,.1.12A.58.58,0,0,1,3.88,12.33Z"/><path class="cls-1" d="M9.72,11.87h0l.06,0a.76.76,0,0,0,.3-.44,1.3,1.3,0,0,0,0-.44.47.47,0,0,0-.1-.27.57.57,0,0,0-.37-.25,1,1,0,0,0-.24,0H8.57c-.07,0-.07,0-.07.06V13a0,0,0,0,0,0,0H9C9,13,9,13,9,12.92V12l0,0h.19l0,0,0,0,.43.78.06.1a0,0,0,0,0,0,0h.6Zm-.15-.55a.35.35,0,0,1-.09.16.37.37,0,0,1-.14.07H9s0,0,0,0v-.65a0,0,0,0,1,0,0h.33a.25.25,0,0,1,.23.21A.65.65,0,0,1,9.57,11.32Z"/><path class="cls-1" d="M14.05,12.91l-.57-1a.09.09,0,0,1,0-.07l.05,0a.73.73,0,0,0,.28-.41,1.13,1.13,0,0,0,0-.48.72.72,0,0,0-.1-.27.55.55,0,0,0-.38-.25.9.9,0,0,0-.23,0h-.83c-.07,0-.06,0-.06.06V13a0,0,0,0,0,0,0h.43c.06,0,.06,0,.06-.05V12l0,0h.17s0,0,0,0l0,0c.15.26.29.51.43.78l.06.1,0,0h.58v0Zm-.76-1.58a.28.28,0,0,1-.1.14.2.2,0,0,1-.13.08h-.32s0,0,0,0v-.65s0,0,0,0h.33a.27.27,0,0,1,.23.2A.76.76,0,0,1,13.29,11.33Z"/><path class="cls-1" d="M12,10.46v0s0,0,0,0h-.41c-.08,0-.07,0-.07.06V12a1.09,1.09,0,0,1,0,.18.46.46,0,0,1-.05.2.25.25,0,0,1-.2.16.38.38,0,0,1-.15,0,.28.28,0,0,1-.25-.19l0-.07a.71.71,0,0,1,0-.25V10.41l0,0h-.42c-.08,0-.07,0-.07.07V12a2.11,2.11,0,0,0,0,.25.85.85,0,0,0,.09.31.68.68,0,0,0,.47.4,1.37,1.37,0,0,0,.57,0,.7.7,0,0,0,.46-.38l.06-.13a1.54,1.54,0,0,0,.06-.43v-1.6Z"/><path class="cls-1" d="M6.11,11.8c-.14-.46-.26-.91-.38-1.36,0,0,0,0-.07,0H5.2c-.08,0-.06,0-.08.07-.11.37-.21.75-.32,1.13s-.25.89-.38,1.35v0h.49a0,0,0,0,0,0,0v0c0-.15.07-.28.11-.42s0-.05.06-.05h.64l0,0v0l.12.43a.06.06,0,0,0,0,0h.51v0C6.31,12.55,6.21,12.18,6.11,11.8ZM5.65,12H5.18c.08-.3.16-.6.23-.9,0,0,0,0,0,0,.07.29.14.56.22.85Z"/><path class="cls-1" d="M16.16,12.92l-.61-2.21-.09-.3s0,0,0,0H14.9s0,0,0,0a0,0,0,0,0,0,0c-.15.54-.3,1.08-.44,1.62l-.25.88s0,0,0,0h.47s0,0,0,0h0l.09-.35,0-.11s0,0,0,0h.66s0,0,0,0,.05.2.08.29a1.13,1.13,0,0,0,0,.18l0,0h.5A.08.08,0,0,0,16.16,12.92Zm-.77-1s0,0,0,0h-.46l.24-.91a0,0,0,0,1,0,0c.07.28.15.56.22.84Z"/><path class="cls-1" d="M16.28,12.92c0,.06,0,.05.06.05h1.35v-.44s0,0,0,0h-.87s0-.05,0-.08v-2h-.48s0,0,0,0v2.5Z"/><path class="cls-1" d="M4.92,13.52a.12.12,0,0,0-.08,0,.2.2,0,0,0-.13,0l0,0h0s0,0,0,0H4.51s0,0,0,0V14l0,0H4.6c.05,0,.05,0,.05-.05v-.27a.05.05,0,0,1,0-.05h.05s.07,0,.08.07V14l0,0H5l0,0v-.31a0,0,0,0,1,0,0,.14.14,0,0,1,.11,0,0,0,0,0,1,0,0,.13.13,0,0,1,0,.06v.16a.41.41,0,0,0,0,.11h.12s0,0,0,0v-.31s0-.05,0-.07a.14.14,0,0,0-.12-.09.19.19,0,0,0-.13,0L5,13.55l0,0Z"/><path class="cls-1" d="M6.16,13.49s-.09,0-.13,0H6a.15.15,0,0,0-.11,0,.2.2,0,0,0-.2.14.39.39,0,0,0,0,.24.15.15,0,0,0,.12.1.2.2,0,0,0,.17,0H6c0,.07,0,.1-.08.12H5.85l-.1,0s0,0,0,0v.08s0,0,0,0a.69.69,0,0,0,.2,0l.12,0a.19.19,0,0,0,.1-.1.36.36,0,0,0,0-.1v-.41S6.18,13.49,6.16,13.49ZM6,13.8s0,0,0,0a.2.2,0,0,1-.1,0,.12.12,0,0,1-.07-.07v-.1a.12.12,0,0,1,.1-.09H6s0,0,0,.06Z"/><path class="cls-1" d="M2.74,13.92v0l0,0h.43l0,0h0v-.09s0,0,0,0H2.93l0,0h0v-.1s0,0,0,0h.2c.06,0,0,0,0,0h0c0-.07,0-.07-.06-.07h-.2s0,0,0,0v-.06a0,0,0,0,1,0,0h.27v-.1H2.74v.58Z"/><path class="cls-1" d="M12.68,13.3s0,0,0,0v.14a.06.06,0,0,1,0,0H12.6a.21.21,0,0,0-.27.12l0,.09a.62.62,0,0,0,0,.18.18.18,0,0,0,.22.1l0,0,0,0s0,0,0,0h.12l0,0V13.3Zm0,.42h0a.34.34,0,0,0,0,.1l0,0a.12.12,0,0,1-.1,0s-.06,0-.06-.06a.17.17,0,0,1,0-.14.09.09,0,0,1,.09-.08h.07l0,0Z"/><path class="cls-1" d="M7.68,13.49H7.47a.22.22,0,0,0-.26.09.65.65,0,0,0,0,.13.39.39,0,0,0,0,.18.19.19,0,0,0,.2.1l.07,0,0,0s0,0,0,0v.17s0,0,0,0h.12l0,0v-.53A.45.45,0,0,0,7.68,13.49Zm-.18.37a.14.14,0,0,1-.09,0,.09.09,0,0,1-.06-.06.19.19,0,0,1,0-.15.09.09,0,0,1,.08-.07H7.5s0,0,0,0v.09a.38.38,0,0,0,0,.1S7.52,13.85,7.5,13.86Z"/><path class="cls-1" d="M4.25,13.49H4.16a.79.79,0,0,0-.22,0l0,0a.33.33,0,0,0,0,.1H4l.06,0h.14a.07.07,0,0,1,.06,0h0v0H4.09a.28.28,0,0,0-.13,0,.13.13,0,0,0-.08.07s0,0,0,0A.16.16,0,0,0,4,14a.27.27,0,0,0,.19-.05s0,0,0,0,0,0,0,0h.11a0,0,0,0,0,0,0v-.32h0A.16.16,0,0,0,4.25,13.49Zm-.1.39H4.08a.06.06,0,0,1,0-.11l.08,0c.06,0,.06,0,.06.05S4.2,13.87,4.15,13.88Z"/><path class="cls-1" d="M14.19,13.5l-.1,0h-.17l-.09,0a.17.17,0,0,0,0,.1s0,0,0,0l.06,0h.14a.05.05,0,0,1,.06,0s0,0,0,0H14a.24.24,0,0,0-.12,0,.15.15,0,0,0-.09.16.17.17,0,0,0,.11.12.22.22,0,0,0,.18,0l0,0h0s0,0,0,0h.12s0,0,0,0V13.6A.14.14,0,0,0,14.19,13.5Zm-.14.38H14a0,0,0,0,1,0,0s0-.05,0-.07h.09s0,0,0,.05S14.09,13.87,14.05,13.88Z"/><path class="cls-1" d="M10.18,13.76h0a.62.62,0,0,0,0-.13.18.18,0,0,0-.15-.14H9.87a.21.21,0,0,0-.19.16.17.17,0,0,0,0,.12.2.2,0,0,0,.17.21.42.42,0,0,0,.27,0c.08,0,.06,0,.06-.08h0c0-.05,0-.07-.06,0l0,0a.22.22,0,0,1-.16,0,.09.09,0,0,1-.08-.08s0,0,0,0Zm-.28-.19h0a.09.09,0,0,1,.07.08H9.85s0,0,0,0A.11.11,0,0,1,9.9,13.57Z"/><path class="cls-1" d="M17.13,13.76c.08,0,.07,0,.07-.08v0a.18.18,0,0,0-.17-.17H16.9a.22.22,0,0,0-.21.2.17.17,0,0,0,0,.07.21.21,0,0,0,.17.22A.36.36,0,0,0,17,14a.58.58,0,0,0,.14,0s0,0,0,0v-.1h0l-.07,0a.25.25,0,0,1-.17,0s-.07,0-.09-.09l0,0Zm-.2-.19h0a.06.06,0,0,1,.06,0c0,.05,0,.05,0,.05h-.14s0,0,0,0A.1.1,0,0,1,16.93,13.57Z"/><path class="cls-1" d="M10.89,13.49h-.08a.74.74,0,0,0-.21,0l0,0v.09h0l.07,0h.15s0,0,0,0h0l-.11,0a.23.23,0,0,0-.11,0,.09.09,0,0,0-.08.06s0,0,0,0a.15.15,0,0,0,.12.18h.08a.22.22,0,0,0,.11-.05s0,0,0,0,0,0,0,0H11s0,0,0,0v-.31C11,13.55,11,13.51,10.89,13.49Zm-.08.39h-.07s-.05,0-.05-.06a.05.05,0,0,1,0-.06h.09s0,0,0,.05S10.86,13.87,10.81,13.88Z"/><path class="cls-1" d="M8.75,13.48H8.6a.25.25,0,0,0-.2.18.33.33,0,0,0,0,.14.2.2,0,0,0,.11.14l.09,0a.53.53,0,0,0,.25,0c.07,0,.06,0,.06-.08v-.05s0,0,0,0l0,0-.1,0a.17.17,0,0,1-.12,0c-.05,0-.06,0-.06-.1h.27c.09,0,.08,0,.08-.07v0A.2.2,0,0,0,8.75,13.48Zm0,.19H8.58s0,0,0,0a.08.08,0,0,1,.07-.07h0a.07.07,0,0,1,.07.06S8.76,13.67,8.73,13.67Z"/><path class="cls-1" d="M16,13.86a.27.27,0,0,1-.18,0s-.07,0-.08-.08,0,0,0,0h.33a.25.25,0,0,0,0-.12.18.18,0,0,0-.17-.16H15.8a.21.21,0,0,0-.2.19.24.24,0,0,0,0,.12.2.2,0,0,0,.15.18h0A.48.48,0,0,0,16,14c.09,0,.07,0,.07-.08v-.06h0Zm-.23-.27a.13.13,0,0,1,.12,0,.08.08,0,0,1,0,.07h-.18s0,0,0,0A.09.09,0,0,1,15.79,13.59Z"/><path class="cls-1" d="M13.31,13.5l-.09,0h-.17c-.12,0-.1,0-.1.11h0s0,0,0,0l.07,0h.13a.07.07,0,0,1,.07,0s0,0,0,0l-.1,0-.12,0a.15.15,0,0,0-.09.16A.16.16,0,0,0,13,14a.22.22,0,0,0,.16,0l.05,0v0s0,0,0,0h.11s0,0,0,0v-.33A.14.14,0,0,0,13.31,13.5Zm-.14.38h-.06a0,0,0,0,1,0-.05.09.09,0,0,1,0-.06h.08c.07,0,.06,0,.06.05S13.23,13.87,13.17,13.88Z"/><path class="cls-1" d="M6.64,13.48H6.47a.23.23,0,0,0-.18.16.54.54,0,0,0,0,.18.23.23,0,0,0,.16.16.34.34,0,0,0,.2,0,.26.26,0,0,0,.16-.15.41.41,0,0,0,0-.11v0A.25.25,0,0,0,6.64,13.48Zm0,.34a.11.11,0,0,1-.07.06.1.1,0,0,1-.12-.07.22.22,0,0,1,0-.16.08.08,0,0,1,.08-.07.12.12,0,0,1,.11.07.22.22,0,0,1,0,.08A.28.28,0,0,1,6.65,13.82Z"/><path class="cls-1" d="M11.71,13.51v.31a.13.13,0,0,0,0,.06.15.15,0,0,0,.12.11A.19.19,0,0,0,12,14l0,0s0,0,0,0a0,0,0,0,0,0,0h.13v0h0V13.5H12v.34a.14.14,0,0,1-.11,0s0,0,0,0a.2.2,0,0,1,0-.07V13.5s0,0,0,0h-.14Z"/><path class="cls-1" d="M7.81,13.52v.34a.16.16,0,0,0,.13.13.17.17,0,0,0,.14,0l0,0s0,0,0,0,0,0,0,0h.11s0,0,0,0v-.44s0,0,0,0H8.17s0,0,0,0v.31s0,0,0,0a.14.14,0,0,1-.11,0s0,0,0,0a.13.13,0,0,1,0-.06v-.14a.28.28,0,0,0,0-.13H7.81v0Z"/><path class="cls-1" d="M11.11,13.55l.15.38a.11.11,0,0,1,0,.08,1.17,1.17,0,0,1,0,.11s0,0,0,0h.14l0,0v0l.24-.59s0,0,0,0H11.5a0,0,0,0,0,0,0c0,.08-.05.15-.08.22s0,0,0,0a.05.05,0,0,1,0,0l-.08-.2v0h-.17l0,.06Z"/><path class="cls-1" d="M16.62,13.88v-.05h0l0,0a.17.17,0,0,1-.14,0,.11.11,0,0,1-.1-.09.14.14,0,0,1,0-.09.11.11,0,0,1,.12-.1l.1,0,0,0s0,0,0,0v-.09a0,0,0,0,0,0,0,.37.37,0,0,0-.29,0,.22.22,0,0,0-.14.19v.07a.23.23,0,0,0,.16.21.36.36,0,0,0,.23,0c.08,0,.07,0,.07-.08h0Z"/><path class="cls-1" d="M9.5,13.48s0,0,0,0v-.1H9.32v.1s0,0,0,0h0s0,0,0,0v.07h0s0,0,0,0v.22c0,.09,0,.13.13.14h.1c.09,0,.07,0,.07-.08v0s0,0,0,0a.09.09,0,0,1-.07,0,.06.06,0,0,1-.06,0v-.2a0,0,0,0,1,0,0h.12v-.09Z"/><path class="cls-1" d="M15.11,13.58v-.05l0,0a.42.42,0,0,0-.31,0,.22.22,0,0,0-.12.17.2.2,0,0,0,0,.11.2.2,0,0,0,.16.19A.4.4,0,0,0,15,14l.08,0,0,0v-.11s0,0,0,0h0l0,0a.17.17,0,0,1-.14,0,.09.09,0,0,1-.09-.07.15.15,0,0,1,0-.13.1.1,0,0,1,.11-.08.13.13,0,0,1,.11,0l0,0s0,0,0,0v-.05Z"/><path class="cls-1" d="M3.37,13.3c-.05,0,0,0,0,0V14s0,0,0,0h.11s0,0,0,0v-.61s0,0,0,0A.4.4,0,0,0,3.37,13.3Z"/><path class="cls-1" d="M17.3,13.82V14s0,0,0,0h.07c.06,0,.06,0,.06-.06v-.24s0,0,0,0h.14s0,0,0,0V13.5h0a.17.17,0,0,0-.12,0l0,0h0v0s0,0,0,0h-.1s0,0,0,0v.3Z"/><path class="cls-1" d="M15.36,13.5h-.14s0,0,0,0h0v.35a.25.25,0,0,0,0,.12h.13l0,0V13.7c0-.06,0,0,.05-.06h.12s0,0,0,0V13.5l0,0a.19.19,0,0,0-.12,0l-.05,0Z"/><path class="cls-1" d="M5.58,13.58V13.5H5.42V14l0,0h.09s0,0,0,0v-.36Z"/><path class="cls-1" d="M5.58,13.32h0l0,0h-.1s0,0,0,0,0,.08.08.08.09,0,.09-.1Z"/></svg>