<svg id="Capa_1" data-name="Capa 1" xmlns="http://www.w3.org/2000/svg" viewBox="0 0 20 20"><defs><style>.cls-1{fill:#13448d;}</style></defs><title>ICONO VISA</title><path class="cls-1" d="M17.62,1A1.38,1.38,0,0,1,19,2.38V17.62A1.38,1.38,0,0,1,17.62,19H2.38A1.38,1.38,0,0,1,1,17.62V2.38A1.38,1.38,0,0,1,2.38,1H17.62m0-.5H2.38A1.88,1.88,0,0,0,.5,2.38V17.62A1.88,1.88,0,0,0,2.38,19.5H17.62a1.88,1.88,0,0,0,1.88-1.88V2.38A1.88,1.88,0,0,0,17.62.5Z"/><path class="cls-1" d="M16.3,7.62h-.89a.72.72,0,0,0-.75.5c-.26.65-.54,1.29-.81,1.94l-1,2.33a7.28,7.28,0,0,1,.82,0,.5.5,0,0,0,.64-.43.4.4,0,0,1,.29-.27c.45,0,.91,0,1.37,0,0,.2.06.37.11.53s.1.17.16.17c.33,0,.66,0,1,0Zm-1.49,3,.62-1.72.36,1.72Z"/><path class="cls-1" d="M2.17,7.65c.71,0,1.41,0,2.12,0,.34,0,.38.34.44.61.16.82.31,1.64.5,2.58.17-.46.31-.8.44-1.15.22-.59.44-1.17.64-1.76a.39.39,0,0,1,.47-.33c.3,0,.6,0,1,0l-.35.86c-.49,1.2-1,2.4-1.46,3.61a.42.42,0,0,1-.46.31c-1,0-1,0-1.22-1S3.74,9.62,3.53,8.7A.86.86,0,0,0,2.93,8l-.77-.29S2.17,7.67,2.17,7.65Z"/><path class="cls-1" d="M9.46,12.2c.06-.37.11-.7.15-1,.47.08.91.17,1.36.23a.87.87,0,0,0,.41-.09.37.37,0,0,0,.09-.69c-.22-.16-.47-.27-.7-.41A1.29,1.29,0,0,1,10,9a1.46,1.46,0,0,1,.89-1.23,2.76,2.76,0,0,1,2.27,0L13,8.7l-1.05-.15a1,1,0,0,0-.41.08c-.34.14-.38.41-.08.62a3.6,3.6,0,0,0,.54.31c.59.3,1,.69,1,1.44a1.58,1.58,0,0,1-1.25,1.34A3.56,3.56,0,0,1,9.46,12.2Z"/><path class="cls-1" d="M8.7,12.37H7.47c.11-.74.23-1.47.34-2.2s.26-1.51.37-2.27c0-.22.11-.29.32-.28h1c-.25,1.6-.5,3.15-.76,4.75Z"/></svg>