<svg id="Capa_1" data-name="Capa 1" xmlns="http://www.w3.org/2000/svg" viewBox="0 0 20 20"><defs><style>.cls-1{fill:none;stroke:#1c3861;stroke-miterlimit:10;stroke-width:0.5px;}</style></defs><title>ICONO AVIÓN</title><path class="cls-1" d="M10.59,11.19,7.87,13.91l.15.15a.46.46,0,0,1,.39-.1l.6.59a.4.4,0,0,1,.05.45l-.9.89a5.78,5.78,0,0,1-1.63.64L7.08,15h-.7l-1.33.84,1,3.07-.84.84L3.52,16.88l-.94.54.54-.94L.25,14.8,1.09,14l3.07,1L5,13.62v-.7l-1.53.55a5.78,5.78,0,0,1,.64-1.63l.89-.9a.4.4,0,0,1,.45.05l.59.6a.46.46,0,0,1-.1.39l.15.15L8.81,9.41,1.29,4.66l.89-.89,9.15,3.12,4.75-4.75S17.71.61,19.24.76c.15,1.53-1.38,3.16-1.38,3.16L13.11,8.67l3.12,9.15-.89.89Z"/></svg>