<svg id="Capa_1" data-name="Capa 1" xmlns="http://www.w3.org/2000/svg" viewBox="0 0 20 20"><defs><style>.cls-1{fill:#e31937;}</style></defs><title>ICONO GYT</title><path class="cls-1" d="M16.8,1A2.21,2.21,0,0,1,19,3.22V16.78A2.21,2.21,0,0,1,16.8,19H3.2A2.21,2.21,0,0,1,1,16.78V3.22A2.21,2.21,0,0,1,3.2,1H16.8m0-.5H3.2A2.7,2.7,0,0,0,.5,3.22V16.78a2.7,2.7,0,0,0,2.7,2.7H16.8a2.7,2.7,0,0,0,2.7-2.7V3.22A2.7,2.7,0,0,0,16.8.52Z"/><path class="cls-1" d="M11.83,1.87a.05.05,0,0,1,.05,0l2,3.35a14.81,14.81,0,0,0-7.7,11.4,15.44,15.44,0,0,1,8-10.78l.9,1.49a12.13,12.13,0,0,0-6.66,9.29,12.54,12.54,0,0,1,6.89-8.88L17,10.65a8.37,8.37,0,0,0-4.76,6h-9L11.77,1.9l0,0h0m0-.5h-.14l-.14.08-.12.06-.09.14L2.78,16.4l-.44.75H12.65l.06-.44a7.79,7.79,0,0,1,4.48-5.61l.48-.23-.26-.47L15.79,7.58h0l-.28-.47-.91-1.49-.1-.16h0L14.28,5l-2-3.35a.55.55,0,0,0-.48-.28Z"/></svg>